<?xml version="1.0" standalone="no"?>
<!DOCTYPE svg PUBLIC "-//W3C//DTD SVG 20010904//EN"
 "http://www.w3.org/TR/2001/REC-SVG-20010904/DTD/svg10.dtd">
<svg version="1.0" xmlns="http://www.w3.org/2000/svg"
 width="512.000000pt" height="512.000000pt" viewBox="0 0 512.000000 512.000000"
 preserveAspectRatio="xMidYMid meet">
<metadata>
Created by potrace 1.14, written by Peter Selinger 2001-2017
</metadata>
<g transform="translate(0.000000,512.000000) scale(0.100000,-0.100000)"
fill="#000000" stroke="none">
<path d="M2829 3326 c-2 -2 -33 -6 -69 -10 -103 -9 -149 -16 -245 -37 -217
-48 -317 -88 -735 -292 l-165 -80 -130 -2 c-121 -2 -311 -12 -380 -20 -16 -2
-61 -6 -100 -10 -38 -4 -72 -8 -75 -10 -3 -1 -32 -6 -65 -9 -159 -17 -447 -85
-558 -132 -195 -82 -310 -261 -302 -469 5 -148 25 -203 80 -229 29 -13 58 -18
195 -32 36 -3 90 -9 121 -13 l56 -7 -20 55 c-23 66 -28 204 -8 266 53 168 181
292 341 329 168 39 344 -18 454 -147 69 -83 101 -159 112 -268 5 -60 3 -75
-32 -214 l-5 -21 1163 1 c1025 0 1163 2 1161 15 -1 8 -9 40 -18 70 -28 100
-12 240 40 332 85 151 239 242 410 240 209 -1 385 -140 441 -345 15 -55 16
-172 3 -221 -8 -28 4 -51 21 -42 3 2 28 6 55 10 197 23 348 47 377 59 48 20
80 55 125 134 37 67 38 70 38 173 0 100 -1 108 -33 165 -19 33 -53 113 -78
178 -72 193 -65 188 -320 202 -65 4 -141 8 -167 10 -33 2 -89 23 -175 63 -302
142 -645 243 -957 282 -49 6 -103 13 -120 16 -35 6 -431 15 -436 10z m411
-119 c14 -2 54 -8 90 -12 36 -4 74 -9 85 -11 11 -2 34 -6 50 -9 69 -12 135
-29 220 -57 97 -32 245 -98 245 -109 0 -3 -12 -19 -26 -35 -14 -16 -32 -39
-41 -51 l-15 -23 -885 0 c-553 0 -882 4 -878 10 3 5 -3 27 -14 48 l-20 39 97
46 c101 47 206 85 307 112 189 50 304 63 545 60 118 -2 226 -5 240 -8z"/>
<path d="M780 2545 c-172 -46 -290 -201 -285 -375 6 -219 183 -386 397 -375
147 7 268 88 332 224 27 59 31 76 31 157 0 84 -3 95 -37 165 -44 89 -95 139
-184 181 -74 35 -177 44 -254 23z m61 -152 c0 -10 2 -31 3 -47 2 -27 -15 -56
-33 -56 -4 0 -24 17 -45 39 l-37 38 43 22 c52 26 68 26 69 4z m141 -4 l41 -21
-40 -39 c-53 -54 -73 -46 -73 27 0 62 7 66 72 33z m-228 -162 c-5 -13 -19 -17
-60 -17 -31 0 -54 4 -54 11 0 5 9 31 21 56 l21 46 39 -40 c28 -27 38 -44 33
-56z m356 1 c0 -15 -9 -18 -54 -18 -71 0 -79 18 -29 71 l37 39 23 -37 c13 -21
23 -46 23 -55z m-350 -112 c0 -7 -17 -29 -38 -49 l-38 -37 -16 28 c-8 15 -18
39 -22 54 -6 26 -5 27 41 30 49 3 73 -5 73 -26z m345 -3 c-3 -16 -14 -40 -24
-55 l-17 -28 -37 38 c-52 53 -43 72 30 72 55 0 55 0 48 -27z m-279 -61 c19
-12 22 -112 3 -112 -5 0 -31 9 -56 21 l-46 21 39 39 c43 42 44 42 60 31z m158
-31 l38 -38 -44 -22 c-25 -11 -50 -21 -56 -21 -17 0 -16 107 1 113 21 9 22 8
61 -32z"/>
<path d="M3983 2549 c-106 -19 -202 -85 -256 -177 -46 -77 -61 -137 -55 -225
18 -271 301 -432 551 -312 63 30 131 99 166 168 26 51 34 81 38 143 7 96 -10
160 -63 240 -82 124 -235 189 -381 163z m34 -191 c0 -47 -8 -67 -28 -68 -7 0
-48 38 -68 63 -12 15 -9 19 30 37 24 11 49 20 55 20 6 0 10 -22 11 -52z m131
32 c23 -10 42 -22 42 -26 0 -8 -72 -74 -81 -74 -15 0 -26 28 -27 73 -1 54 4
55 66 27z m-251 -112 c36 -35 43 -67 16 -69 -83 -5 -98 -2 -95 17 6 30 30 84
39 84 4 0 22 -14 40 -32z m374 -21 c14 -34 15 -47 6 -48 -77 -6 -102 -2 -105
15 -4 19 56 88 71 83 6 -2 18 -24 28 -50z m-342 -131 c9 -10 3 -22 -29 -55
l-40 -41 -15 24 c-9 13 -20 38 -25 55 l-9 31 53 0 c33 0 58 -5 65 -14z m351
-14 c-4 -16 -14 -41 -22 -56 l-14 -27 -41 38 c-33 31 -39 42 -32 56 8 13 23
17 64 17 l54 0 -9 -28z m-274 -60 c6 -4 11 -31 11 -60 l-1 -53 -30 7 c-17 4
-41 13 -54 22 l-23 15 37 39 c40 40 43 42 60 30z m179 -72 c-9 -14 -76 -42
-89 -37 -21 8 -18 105 3 110 17 4 93 -61 86 -73z"/>
</g>
</svg>
